<mxfile host="65bd71144e">
    <diagram id="yIrrB_NMkspFaITiPY-i" name="Страница 1">
        <mxGraphModel dx="1165" dy="617" grid="1" gridSize="10" guides="1" tooltips="1" connect="1" arrows="1" fold="1" page="1" pageScale="1" pageWidth="827" pageHeight="1169" math="0" shadow="0">
            <root>
                <mxCell id="0"/>
                <mxCell id="1" parent="0"/>
                <mxCell id="23" style="edgeStyle=none;html=1;exitX=0.5;exitY=1;exitDx=0;exitDy=0;entryX=0.477;entryY=-0.039;entryDx=0;entryDy=0;entryPerimeter=0;" parent="1" source="2" target="3" edge="1">
                    <mxGeometry relative="1" as="geometry"/>
                </mxCell>
                <mxCell id="2" value="старт" style="ellipse;whiteSpace=wrap;html=1;" parent="1" vertex="1">
                    <mxGeometry x="190" y="10" width="120" height="80" as="geometry"/>
                </mxCell>
                <mxCell id="24" style="edgeStyle=none;html=1;entryX=0.5;entryY=0;entryDx=0;entryDy=0;" parent="1" source="3" target="7" edge="1">
                    <mxGeometry relative="1" as="geometry"/>
                </mxCell>
                <mxCell id="3" value="string [] array1 -исходный массив&lt;br&gt;string[] array2 -пустой массив&lt;br&gt;count =0&lt;br&gt;i=0" style="shape=parallelogram;perimeter=parallelogramPerimeter;whiteSpace=wrap;html=1;fixedSize=1;" parent="1" vertex="1">
                    <mxGeometry x="120" y="120" width="270" height="60" as="geometry"/>
                </mxCell>
                <mxCell id="5" style="edgeStyle=none;html=1;exitX=1;exitY=0.5;exitDx=0;exitDy=0;" parent="1" edge="1">
                    <mxGeometry relative="1" as="geometry">
                        <mxPoint x="400" y="260" as="targetPoint"/>
                        <mxPoint x="320" y="260" as="sourcePoint"/>
                    </mxGeometry>
                </mxCell>
                <mxCell id="18" style="edgeStyle=none;html=1;exitX=0.5;exitY=1;exitDx=0;exitDy=0;" parent="1" source="7" edge="1">
                    <mxGeometry relative="1" as="geometry">
                        <mxPoint x="255" y="360" as="targetPoint"/>
                    </mxGeometry>
                </mxCell>
                <mxCell id="7" value="i &amp;lt; array1.Length&lt;br&gt;" style="rhombus;whiteSpace=wrap;html=1;" parent="1" vertex="1">
                    <mxGeometry x="190" y="200" width="130" height="130" as="geometry"/>
                </mxCell>
                <mxCell id="8" value="нет" style="text;html=1;align=center;verticalAlign=middle;resizable=0;points=[];autosize=1;strokeColor=none;fillColor=none;" parent="1" vertex="1">
                    <mxGeometry x="335" y="240" width="30" height="20" as="geometry"/>
                </mxCell>
                <mxCell id="10" style="edgeStyle=none;html=1;exitX=1;exitY=0.5;exitDx=0;exitDy=0;" parent="1" source="9" target="11" edge="1">
                    <mxGeometry relative="1" as="geometry">
                        <mxPoint x="600" y="265" as="targetPoint"/>
                    </mxGeometry>
                </mxCell>
                <mxCell id="9" value="Print array2" style="shape=document;whiteSpace=wrap;html=1;boundedLbl=1;" parent="1" vertex="1">
                    <mxGeometry x="410" y="225" width="120" height="80" as="geometry"/>
                </mxCell>
                <mxCell id="11" value="конец" style="ellipse;whiteSpace=wrap;html=1;" parent="1" vertex="1">
                    <mxGeometry x="590" y="225" width="120" height="80" as="geometry"/>
                </mxCell>
                <mxCell id="13" style="edgeStyle=none;html=1;" parent="1" source="12" edge="1">
                    <mxGeometry relative="1" as="geometry">
                        <mxPoint x="470" y="435" as="targetPoint"/>
                    </mxGeometry>
                </mxCell>
                <mxCell id="qSrAAsN2GkYtv2pIP4ln-24" style="edgeStyle=none;html=1;" edge="1" parent="1" source="12">
                    <mxGeometry relative="1" as="geometry">
                        <mxPoint x="255" y="520" as="targetPoint"/>
                    </mxGeometry>
                </mxCell>
                <mxCell id="12" value="array[ i ]&amp;lt;=3&amp;nbsp;" style="rhombus;whiteSpace=wrap;html=1;" parent="1" vertex="1">
                    <mxGeometry x="180" y="370" width="150" height="130" as="geometry"/>
                </mxCell>
                <mxCell id="15" value="нет" style="text;html=1;align=center;verticalAlign=middle;resizable=0;points=[];autosize=1;strokeColor=none;fillColor=none;" parent="1" vertex="1">
                    <mxGeometry x="355" y="410" width="30" height="20" as="geometry"/>
                </mxCell>
                <mxCell id="qSrAAsN2GkYtv2pIP4ln-28" style="edgeStyle=none;html=1;" edge="1" parent="1" source="16">
                    <mxGeometry relative="1" as="geometry">
                        <mxPoint x="120" y="560" as="targetPoint"/>
                        <Array as="points">
                            <mxPoint x="540" y="640"/>
                            <mxPoint x="120" y="640"/>
                        </Array>
                    </mxGeometry>
                </mxCell>
                <mxCell id="16" value="count++&lt;br&gt;i++" style="whiteSpace=wrap;html=1;" parent="1" vertex="1">
                    <mxGeometry x="480" y="410" width="120" height="50" as="geometry"/>
                </mxCell>
                <mxCell id="qSrAAsN2GkYtv2pIP4ln-27" style="edgeStyle=none;html=1;entryX=0;entryY=0.5;entryDx=0;entryDy=0;" edge="1" parent="1" source="17" target="7">
                    <mxGeometry relative="1" as="geometry">
                        <Array as="points">
                            <mxPoint x="160" y="560"/>
                            <mxPoint x="110" y="560"/>
                            <mxPoint x="80" y="560"/>
                            <mxPoint x="80" y="265"/>
                        </Array>
                    </mxGeometry>
                </mxCell>
                <mxCell id="17" value="array2[i] =array1[i]&lt;br&gt;count ++&lt;br&gt;i++" style="rounded=0;whiteSpace=wrap;html=1;" parent="1" vertex="1">
                    <mxGeometry x="200" y="525" width="120" height="60" as="geometry"/>
                </mxCell>
            </root>
        </mxGraphModel>
    </diagram>
</mxfile>